<svg width="336" height="100" viewBox="0 0 336 100" fill="none" xmlns="http://www.w3.org/2000/svg">
<rect x="0.608154" width="335" height="100" rx="6" fill="#E8F1FD"/>
<path d="M47.3779 20.3475C47.3779 20.3475 35.5577 26.3691 29.6625 35.648C23.7673 44.9269 24.2337 56.864 31.3972 65.7248C38.5607 74.5856 52.2529 73.4218 63.7173 79.0347C75.1817 84.6476 87.8302 83.4916 93.2512 71.5998C98.6722 59.7079 90.4978 55.2634 89.0938 41.5011C87.6898 27.7388 75.2831 7.58671 47.3779 20.3475Z" fill="#2F80ED"/>
<path opacity="0.7" d="M47.3779 20.3475C47.3779 20.3475 35.5577 26.3691 29.6625 35.648C23.7673 44.9269 24.2337 56.864 31.3972 65.7248C38.5607 74.5856 52.2529 73.4218 63.7173 79.0347C75.1817 84.6476 87.8302 83.4916 93.2512 71.5998C98.6722 59.7079 90.4978 55.2634 89.0938 41.5011C87.6898 27.7388 75.2831 7.58671 47.3779 20.3475Z" fill="white"/>
<path d="M82.1751 74.2939C82.1751 74.2939 75.5327 62.636 77.0661 59.6627C78.5996 56.6893 82.5152 62.0354 82.5152 62.0354C82.5152 62.0354 79.1097 51.1622 80.9833 46.412C82.8568 41.6618 86.0923 46.412 86.2623 49.7738C86.4324 53.1356 85.5806 58.8686 85.5806 58.8686C85.5806 58.8686 86.944 47.0126 90.1795 50.5647C93.4149 54.1169 86.0923 65.9853 86.0923 65.9853C86.0923 65.9853 91.0312 63.2179 90.8596 66.7763C90.688 70.3346 84.9004 73.4983 84.9004 73.4983" fill="#2F80ED"/>
<path d="M82.2313 72.1193C82.2313 72.1193 76.0849 66.3847 79.0801 63.8154C82.0753 61.246 83.6509 66.5828 83.6509 66.5828C83.6509 66.5828 80.3405 50.1732 85.6991 49.5788C91.0577 48.9844 87.1172 63.8138 87.1172 63.8138C87.1172 63.8138 91.688 57.488 91.3729 62.636C91.0577 67.784 84.2811 72.1271 84.2811 72.1271" stroke="#263238" stroke-miterlimit="10"/>
<path d="M85.2499 71.0756L81.0972 66.575" stroke="#263238" stroke-miterlimit="10"/>
<path d="M84.3857 71.4219L85.5105 58.2664" stroke="#263238" stroke-miterlimit="10"/>
<path d="M84.2125 70.4688L87.9331 65.5361" stroke="#263238" stroke-miterlimit="10"/>
<path d="M89.5945 69.5515H78.1051L79.2548 83.1032H88.4448L89.5945 69.5515Z" fill="#263238"/>
<path d="M45.7335 53.8361C44.2397 53.1031 42.6956 52.4775 41.1128 51.9641C38.8321 51.2621 36.1411 51.9048 36.0818 52.6645C36.0225 53.4242 36.4281 53.0764 36.9601 53.9C37.4921 54.7237 37.2518 56.6488 38.0131 58.4038C38.7744 60.1588 41.0535 61.0355 41.0535 61.0355L45.7335 53.8361Z" fill="#2F80ED" stroke="#263238" stroke-linecap="round" stroke-linejoin="round"/>
<path opacity="0.3" d="M44.2126 55.5333C44.2126 55.5333 40.7026 53.3103 38.6559 52.5491C36.6092 51.7878 36.4922 52.9001 36.4922 52.9001C36.8289 53.0237 37.1179 53.2507 37.3177 53.5485C37.5175 53.8464 37.6179 54.1999 37.6045 54.5583C37.6045 55.8719 38.2612 58.5925 39.8571 59.1541C41.453 59.7157 44.2126 55.5333 44.2126 55.5333Z" fill="black"/>
<path d="M69.2577 58.0172C70.1751 57.6687 70.6154 56.5877 70.2413 55.6027C69.8671 54.6177 68.8201 54.1016 67.9027 54.4501C66.9854 54.7986 66.545 55.8796 66.9192 56.8646C67.2934 57.8496 68.3404 58.3657 69.2577 58.0172Z" fill="#2F80ED" stroke="#263238" stroke-linecap="round" stroke-linejoin="round"/>
<path d="M44.108 76.6479L46.0768 82.5541C46.1302 82.7141 46.2326 82.8533 46.3695 82.9519C46.5064 83.0504 46.6709 83.1034 46.8396 83.1032H49.9081C50.0651 83.1035 50.2187 83.0576 50.3499 82.9714C50.481 82.8851 50.584 82.7623 50.646 82.6181L52.0188 79.4326" fill="#2F80ED"/>
<path opacity="0.3" d="M45.0955 76.6479L46.7241 82.5541C46.7549 82.7024 46.8336 82.8365 46.948 82.9357C47.0625 83.0349 47.2063 83.0938 47.3575 83.1032H49.9018C50.0416 83.0961 50.1756 83.0454 50.2852 82.9585C50.3948 82.8715 50.4746 82.7525 50.5133 82.6181L51.6521 79.4326" fill="black"/>
<path d="M44.108 76.6479L46.0768 82.5541C46.1302 82.7141 46.2326 82.8533 46.3695 82.9519C46.5064 83.0504 46.6709 83.1034 46.8396 83.1032H49.9081C50.0651 83.1035 50.2187 83.0576 50.3499 82.9714C50.481 82.8851 50.584 82.7623 50.646 82.6181L52.0188 79.4326" stroke="#263238" stroke-linecap="round" stroke-linejoin="round"/>
<path d="M58.9155 76.6479L56.9483 82.5541C56.8949 82.7141 56.7925 82.8533 56.6556 82.9519C56.5187 83.0504 56.3542 83.1034 56.1855 83.1032H53.1201C52.9631 83.1035 52.8095 83.0576 52.6783 82.9714C52.5472 82.8851 52.4442 82.7623 52.3822 82.6181L51.0094 79.4326" fill="#263238"/>
<path d="M58.9155 76.6479L56.9483 82.5541C56.8949 82.7141 56.7925 82.8533 56.6556 82.9519C56.5187 83.0504 56.3542 83.1034 56.1855 83.1032H53.1201C52.9631 83.1035 52.8095 83.0576 52.6783 82.9714C52.5472 82.8851 52.4442 82.7623 52.3822 82.6181L51.0094 79.4326" stroke="#263238" stroke-linecap="round" stroke-linejoin="round"/>
<path d="M65.4348 76.6479L63.4661 82.5541C63.4127 82.7141 63.3103 82.8533 63.1733 82.9519C63.0364 83.0504 62.8719 83.1034 62.7032 83.1032H59.6347C59.4777 83.1035 59.3241 83.0576 59.193 82.9714C59.0618 82.8851 58.9588 82.7623 58.8968 82.6181L57.524 79.4326" fill="#2F80ED"/>
<path opacity="0.3" d="M64.0401 76.6479L62.6939 82.5541C62.619 82.8817 62.4099 83.1032 62.1728 83.1032H60.0746C59.8562 83.1032 59.6581 82.9129 59.5708 82.6181L58.2666 79.4981" fill="black"/>
<path d="M65.4348 76.6479L63.4661 82.5541C63.4127 82.7141 63.3103 82.8533 63.1733 82.9519C63.0364 83.0504 62.8719 83.1034 62.7032 83.1032H59.6347C59.4777 83.1035 59.3241 83.0576 59.193 82.9714C59.0618 82.8851 58.9588 82.7623 58.8968 82.6181L57.524 79.4326" stroke="#263238" stroke-linecap="round" stroke-linejoin="round"/>
<path d="M54.9142 80.5339C64.2337 80.5339 71.7887 73.6822 71.7887 65.2303C71.7887 56.7784 64.2337 49.9267 54.9142 49.9267C45.5947 49.9267 38.0397 56.7784 38.0397 65.2303C38.0397 73.6822 45.5947 80.5339 54.9142 80.5339Z" fill="#2F80ED"/>
<path opacity="0.3" d="M66.5362 54.7736C67.5257 56.7361 68.0413 58.9032 68.0416 61.101C68.0416 69.5531 60.4865 76.4046 51.167 76.4046C47.699 76.4221 44.2996 75.4373 41.3781 73.5685C44.3202 77.5169 49.3013 80.1205 54.95 80.1205C63.998 80.1205 71.33 73.4733 71.33 65.2724C71.3207 61.1681 69.4892 57.4599 66.5362 54.7736Z" fill="black"/>
<path d="M54.9142 80.5339C64.2337 80.5339 71.7887 73.6822 71.7887 65.2303C71.7887 56.7784 64.2337 49.9267 54.9142 49.9267C45.5947 49.9267 38.0397 56.7784 38.0397 65.2303C38.0397 73.6822 45.5947 80.5339 54.9142 80.5339Z" stroke="#263238" stroke-linecap="round" stroke-linejoin="round"/>
<path d="M70.369 66.6031C70.0008 69.6856 68.5797 72.4827 66.4393 74.6917" stroke="#2F80ED" stroke-width="2" stroke-linecap="round" stroke-linejoin="round"/>
<path d="M70.0897 61.856C70.3387 62.8884 70.4644 63.9468 70.4641 65.0088" stroke="#2F80ED" stroke-width="2" stroke-linecap="round" stroke-linejoin="round"/>
<path d="M50.7302 50.8814C52.1206 50.5564 53.544 50.393 54.9719 50.3947C55.886 50.3945 56.799 50.4613 57.7034 50.5944" stroke="#263238" stroke-width="4" stroke-linecap="round" stroke-linejoin="round"/>
<path d="M58.2245 61.5643C58.2245 61.5643 59.8625 60.452 59.9217 58.4053C59.981 56.3586 57.2885 53.3759 55.1247 52.1466C52.961 50.9173 51.3807 51.1529 51.323 52.0296C51.2653 52.9063 50.504 53.9016 50.2123 55.5973C49.9206 57.293 49.802 59.8093 52.0843 60.6283" fill="#2F80ED"/>
<path d="M58.2245 61.5643C58.2245 61.5643 59.8625 60.452 59.9217 58.4053C59.981 56.3586 57.2885 53.3759 55.1247 52.1466C52.961 50.9173 51.3807 51.1529 51.323 52.0296C51.2653 52.9063 50.504 53.9016 50.2123 55.5973C49.9206 57.293 49.802 59.8093 52.0843 60.6283" stroke="#263238" stroke-linecap="round" stroke-linejoin="round"/>
<path opacity="0.3" d="M54.7004 60.9076L55.0358 60.9575C56.4741 61.1649 56.9795 60.2258 56.9374 58.8156C56.8797 56.8266 54.248 52.6146 53.1357 52.0296C52.0234 51.4446 51.674 52.2636 51.674 52.2636C51.674 52.2636 51.83 52.3681 51.2824 54.1855C51.0297 55.0248 50.089 57.9513 51.0203 59.2493C51.844 60.3959 53.3744 60.7094 54.7004 60.9076Z" fill="black"/>
<path opacity="0.3" d="M59.3601 58.892H59.3382C59.3178 58.8893 59.2981 58.8826 59.2803 58.8723C59.2625 58.862 59.2469 58.8482 59.2344 58.8318C59.222 58.8155 59.2129 58.7968 59.2077 58.7768C59.2024 58.7569 59.2012 58.7361 59.2041 58.7157C59.221 58.5958 59.2309 58.4749 59.2337 58.3538C59.2649 57.2618 58.3742 55.694 56.9093 54.2479C56.8947 54.2335 56.883 54.2163 56.875 54.1973C56.867 54.1784 56.8628 54.158 56.8627 54.1375C56.8625 54.1169 56.8664 54.0965 56.8742 54.0774C56.8819 54.0584 56.8933 54.041 56.9078 54.0264C56.9222 54.0117 56.9394 54.0001 56.9584 53.9921C56.9773 53.9841 56.9976 53.9799 57.0182 53.9797C57.0388 53.9796 57.0592 53.9835 57.0782 53.9912C57.0973 53.9989 57.1146 54.0104 57.1293 54.0248C58.6768 55.5536 59.58 57.1745 59.5457 58.3616C59.5424 58.4942 59.532 58.6264 59.5145 58.7579C59.5093 58.7951 59.4907 58.8292 59.4624 58.8538C59.434 58.8784 59.3977 58.892 59.3601 58.892Z" fill="black"/>
<path opacity="0.3" d="M58.5208 60.7734C58.4913 60.7735 58.4623 60.7652 58.4373 60.7495C58.4123 60.7338 58.3923 60.7114 58.3795 60.6847C58.3668 60.6581 58.3619 60.6284 58.3653 60.5991C58.3688 60.5698 58.3805 60.542 58.3991 60.5191C58.6562 60.2041 58.8616 59.8503 59.0075 59.4708C59.0222 59.4321 59.0516 59.4008 59.0894 59.3839C59.1271 59.3669 59.1701 59.3656 59.2087 59.3803C59.2474 59.395 59.2787 59.4244 59.2957 59.4622C59.3126 59.4999 59.3139 59.5429 59.2992 59.5816C59.1416 59.9923 58.9194 60.3751 58.6409 60.7157C58.6264 60.7336 58.6081 60.748 58.5873 60.758C58.5666 60.768 58.5438 60.7732 58.5208 60.7734Z" fill="black"/>
<path opacity="0.3" d="M47.1605 68.1913C47.6219 66.3422 46.0137 64.3487 43.5686 63.7386C41.1235 63.1285 38.7673 64.1329 38.306 65.982C37.8446 67.8311 39.4527 69.8247 41.8978 70.4347C44.343 71.0448 46.6991 70.0404 47.1605 68.1913Z" fill="black"/>
<path d="M46.941 67.8555C47.4024 66.0065 45.7942 64.0129 43.3491 63.4028C40.904 62.7927 38.5479 63.7971 38.0865 65.6462C37.6251 67.4953 39.2333 69.4889 41.6784 70.099C44.1235 70.709 46.4796 69.7046 46.941 67.8555Z" fill="#2F80ED" stroke="#263238" stroke-linecap="round" stroke-linejoin="round"/>
<path d="M41.1362 66.1928C41.1643 66.6109 41.0036 66.9635 40.779 66.9728C40.5543 66.9822 40.3469 66.6608 40.311 66.2427C40.2751 65.8246 40.4436 65.4705 40.6698 65.4627C40.896 65.4549 41.1081 65.7732 41.1362 66.1928Z" stroke="#263238" stroke-linecap="round" stroke-linejoin="round"/>
<path d="M44.2281 66.9681C44.2562 67.3878 44.0955 67.7388 43.8709 67.7481C43.6463 67.7575 43.4388 67.4361 43.4029 67.0165C43.367 66.5969 43.5355 66.2459 43.7617 66.2365C43.9879 66.2271 44.1954 66.5485 44.2281 66.9681Z" stroke="#263238" stroke-linecap="round" stroke-linejoin="round"/>
<path d="M49.3309 68.0523C49.298 68.3526 49.2278 68.6477 49.1219 68.9306C48.2265 71.3502 44.9848 72.3969 41.7821 71.3549" stroke="#263238" stroke-width="3" stroke-linecap="round" stroke-linejoin="round"/>
<path d="M48.8082 67.823H49.8019" stroke="#263238" stroke-width="3" stroke-linecap="round" stroke-linejoin="round"/>
<path d="M42.4779 61.3459C42.3687 61.7999 42.0894 62.1259 41.8539 62.0666C41.6183 62.0073 41.5154 61.5986 41.6261 61.14C41.7369 60.6813 42.0146 60.36 42.2501 60.4177C42.4857 60.4754 42.5886 60.8904 42.4779 61.3459Z" fill="#263238" stroke="#263238" stroke-linecap="round" stroke-linejoin="round"/>
<path d="M45.3547 61.9731C45.4646 61.5174 45.3628 61.1021 45.1274 61.0453C44.8921 60.9886 44.6122 61.312 44.5024 61.7677C44.3926 62.2233 44.4944 62.6387 44.7297 62.6954C44.9651 62.7521 45.2449 62.4287 45.3547 61.9731Z" fill="#263238" stroke="#263238" stroke-linecap="round" stroke-linejoin="round"/>
<path d="M49.6506 78.548L51.3666 82.6196C51.4282 82.7653 51.5314 82.8895 51.6631 82.9769C51.7949 83.0643 51.9495 83.1109 52.1076 83.111H55.2276C55.3843 83.1108 55.5375 83.0649 55.6686 82.9791C55.7996 82.8932 55.9028 82.771 55.9655 82.6274L57.8375 78.3015H57.7564" fill="#2F80ED"/>
<path opacity="0.3" d="M53.2761 78.0285C52.2871 78.0285 51.1358 78.158 50.2045 77.9427L51.8081 82.6118C51.8463 82.7474 51.926 82.8677 52.0359 82.9558C52.1458 83.0439 52.2806 83.0955 52.4212 83.1032H54.9921C55.1311 83.0955 55.2643 83.0448 55.3733 82.9582C55.4822 82.8716 55.5616 82.7533 55.6005 82.6196L57.1527 77.8569L56.5287 77.9427C54.5491 78.158 54.6005 78.0285 53.2761 78.0285Z" fill="black"/>
<path d="M49.6506 78.548L51.3666 82.6196C51.4282 82.7653 51.5314 82.8895 51.6631 82.9769C51.7949 83.0643 51.9495 83.1109 52.1076 83.111H55.2276C55.3843 83.1108 55.5375 83.0649 55.6686 82.9791C55.7996 82.8932 55.9028 82.771 55.9655 82.6274L57.8375 78.3015H57.7564" stroke="#263238" stroke-linecap="round" stroke-linejoin="round"/>
<path d="M80.7322 15.1246L72.1039 27.5563C72.1039 27.5563 71.366 29.316 70.4581 30.6217C69.5501 31.9274 67.0042 33.2331 67.0042 33.2331C67.0042 33.2331 66.778 35.673 66.0401 36.5247C65.3023 37.3765 63.7126 36.8664 63.7126 36.8664C63.7126 36.8664 63.0309 37.6042 62.293 37.9443C61.5551 38.2844 59.2853 37.0364 59.2853 37.0364C59.2853 37.0364 61.3274 39.25 61.6113 39.9879C61.8952 40.7258 62.4069 41.3498 61.499 42.0315C60.5911 42.7132 59.5677 41.7476 59.5677 41.7476C59.5677 41.7476 60.0232 43.2234 58.7175 43.5073C57.4118 43.7912 55.9891 40.952 55.4212 39.9879C54.8534 39.0238 53.2076 35.389 52.9252 35.219C52.6429 35.049 52.2451 34.141 52.8129 33.2893C53.3807 32.4375 57.4086 26.9884 57.8626 26.6C58.3166 26.2116 67.0042 24.1508 67.0042 24.1508L70.2974 15.0685" fill="white"/>
<path opacity="0.2" d="M71.2163 27.692C71.2163 27.692 70.2803 30.5 69.2663 31.046C68.2523 31.592 62.4803 33.074 60.2183 32.762C57.9563 32.45 56.7083 31.592 56.7083 31.592C56.7083 31.592 55.4603 33.23 54.9143 33.776C54.5341 34.1291 54.0816 34.3952 53.5883 34.556C53.5883 34.556 56.3027 41.3748 58.2542 43.4854C58.4058 43.5323 58.5669 43.5398 58.7222 43.5073C60.0279 43.2234 59.5724 41.7476 59.5724 41.7476C59.5724 41.7476 60.5942 42.7117 61.5037 42.0315C62.4132 41.3514 61.8999 40.7258 61.616 39.9879C61.3321 39.25 59.2823 37.0364 59.2823 37.0364C59.2823 37.0364 61.5521 38.2844 62.2899 37.9443C63.0278 37.6042 63.7095 36.8648 63.7095 36.8648C63.7095 36.8648 65.2992 37.3765 66.0371 36.5247C66.7749 35.673 67.0011 33.2331 67.0011 33.2331C67.0011 33.2331 69.5549 31.9274 70.4643 30.6217C71.3738 29.316 72.1101 27.5563 72.1101 27.5563L75.6654 22.4348L71.2163 27.692Z" fill="black"/>
<path d="M80.7322 15.1246L72.1039 27.5563C72.1039 27.5563 71.366 29.316 70.4581 30.6217C69.5501 31.9274 67.0042 33.2331 67.0042 33.2331C67.0042 33.2331 66.778 35.673 66.0401 36.5247C65.3023 37.3765 63.7126 36.8664 63.7126 36.8664C63.7126 36.8664 63.0309 37.6042 62.293 37.9443C61.5551 38.2844 59.2853 37.0364 59.2853 37.0364C59.2853 37.0364 61.3274 39.25 61.6113 39.9879C61.8952 40.7258 62.4069 41.3498 61.499 42.0315C60.5911 42.7132 59.5677 41.7476 59.5677 41.7476C59.5677 41.7476 60.0232 43.2234 58.7175 43.5073C57.4118 43.7912 55.9891 40.952 55.4212 39.9879C54.8534 39.0238 53.2076 35.389 52.9252 35.219C52.6429 35.049 52.2451 34.141 52.8129 33.2893C53.3807 32.4375 57.4086 26.9884 57.8626 26.6C58.3166 26.2116 67.0042 24.1508 67.0042 24.1508L70.2974 15.0685" stroke="#263238" stroke-linecap="round" stroke-linejoin="round"/>
<path d="M51.2217 48.2746L51.4479 49.1264L54.9672 48.2746L58.2604 39.6463L56.1029 38.9084L51.2217 48.2746Z" fill="white" stroke="#263238" stroke-linecap="round" stroke-linejoin="round"/>
<path d="M52.2996 36.8087L57.1809 38.6261L54.7972 49.4103L49.0642 47.6507L52.2996 36.8087Z" fill="white" stroke="#263238" stroke-linecap="round" stroke-linejoin="round"/>
<path d="M49.2561 47.0064L54.3433 48.5024L56.5569 38.9084L52.1 37.4763L49.2561 47.0064Z" fill="#2F80ED" stroke="#263238" stroke-linecap="round" stroke-linejoin="round"/>
<path d="M52.0797 39.8491C51.8583 39.7905 51.627 39.7799 51.4011 39.8179L50.072 44.2717C50.2644 44.4592 50.501 44.5949 50.76 44.6664C51.8021 44.9534 52.944 44.1063 53.309 42.7757C53.6741 41.445 53.1203 40.1346 52.0797 39.8491Z" fill="white" stroke="#263238" stroke-linecap="round" stroke-linejoin="round"/>
<path d="M51.891 40.5869C51.8843 40.5839 51.8788 40.5787 51.8754 40.5722C51.872 40.5657 51.8709 40.5583 51.8722 40.5511L51.9315 40.3202C51.9351 40.3105 51.9365 40.3 51.9355 40.2897C51.9345 40.2794 51.9312 40.2694 51.9258 40.2605C51.9204 40.2517 51.913 40.2442 51.9043 40.2386C51.8956 40.2329 51.8857 40.2294 51.8754 40.2281L51.6273 40.1689C51.6176 40.1649 51.6071 40.1633 51.5967 40.1642C51.5862 40.165 51.5761 40.1683 51.5672 40.1738C51.5582 40.1792 51.5507 40.1867 51.5451 40.1956C51.5396 40.2045 51.5362 40.2146 51.5353 40.225L51.4869 40.4637C51.4851 40.4708 51.4808 40.4771 51.4748 40.4814C51.4688 40.4857 51.4615 40.4877 51.4542 40.4871C51.3696 40.4784 51.2844 40.4784 51.1999 40.4871L50.7459 42.0112C51.1 42.3794 51.6523 42.5635 51.579 42.8723C51.5368 43.0471 51.3777 43.1844 51.0985 43.122C51.0401 43.1141 50.9841 43.0938 50.9342 43.0625C50.8844 43.0311 50.8419 42.9893 50.8096 42.94C50.7773 42.8907 50.7561 42.8351 50.7472 42.7768C50.7384 42.7186 50.7422 42.6591 50.7584 42.6025L50.7724 42.5401C50.7802 42.5057 50.76 42.4777 50.7116 42.4667L50.6164 42.4433L50.3466 43.345C50.455 43.4436 50.5816 43.5199 50.7194 43.5697C50.7264 43.5727 50.7321 43.5782 50.7355 43.585C50.7389 43.5918 50.7399 43.5997 50.7381 43.6071L50.682 43.8052C50.6776 43.8149 50.6758 43.8255 50.6764 43.8361C50.6771 43.8467 50.6804 43.8569 50.6859 43.866C50.6914 43.875 50.6991 43.8826 50.7082 43.8881C50.7172 43.8935 50.7275 43.8967 50.7381 43.8973L50.9955 43.9597C51.0046 43.9645 51.0146 43.9671 51.0248 43.9675C51.0351 43.9678 51.0453 43.9658 51.0546 43.9616C51.0639 43.9573 51.0722 43.951 51.0787 43.9431C51.0852 43.9352 51.0899 43.926 51.0922 43.916L51.1344 43.7194C51.1367 43.7122 51.1413 43.7058 51.1474 43.7013C51.1536 43.6968 51.1611 43.6944 51.1687 43.6945C51.7178 43.7522 52.0906 43.4823 52.2061 43.0018C52.2966 42.6181 52.1671 42.292 51.7662 41.9847C51.3996 41.707 51.0127 41.5697 51.0798 41.2858C51.1266 41.0893 51.306 40.9988 51.5478 41.0565C51.6076 41.0661 51.6647 41.0886 51.715 41.1224C51.7653 41.1562 51.8077 41.2005 51.8393 41.2522C51.8709 41.3039 51.8909 41.3619 51.8979 41.4221C51.9049 41.4823 51.8988 41.5433 51.88 41.6009L51.8691 41.6446C51.8691 41.6711 51.8847 41.6945 51.9331 41.707L52.3902 41.8162C52.3999 41.8198 52.4103 41.8212 52.4206 41.8202C52.431 41.8192 52.4409 41.8159 52.4498 41.8105C52.4587 41.8051 52.4662 41.7977 52.4718 41.789C52.4774 41.7803 52.481 41.7704 52.4822 41.7601L52.5165 41.615C52.621 41.1579 52.4011 40.7695 51.891 40.5869Z" fill="#263238"/>
<path d="M56.3291 31.1318C56.3291 31.1318 57.0108 32.1536 57.1247 33.0631C57.2214 33.8383 57.0401 34.6226 56.613 35.2767C56.2729 35.7868 55.9329 36.2408 55.6489 37.0364C55.365 37.832 55.3089 38.9661 54.9111 39.5324C54.5133 40.0987 54.2871 40.6665 54.8533 41.1782C55.4196 41.6899 56.8969 41.6322 57.6925 40.1564C58.4881 38.6806 58.9983 37.091 59.5084 36.5232C60.0185 35.9553 61.6659 34.6512 61.6659 34.6512C61.6659 34.6512 66.1493 34.0272 67.0011 33.2331C67.8528 32.4391 68.5907 30.2816 68.5907 30.2816" fill="white"/>
<path opacity="0.2" d="M68.2522 31.046C68.2522 31.046 65.8342 32.606 63.9622 33.074C62.0902 33.542 60.9202 33.542 60.2182 34.478C59.5162 35.414 58.8142 38.378 57.8782 38.924C56.9422 39.47 56.7862 37.52 55.4602 37.91L55.4165 37.9256C55.287 38.534 55.1731 39.158 54.9111 39.534C54.5133 40.1018 54.2871 40.6681 54.8533 41.1798C55.4196 41.6914 56.8969 41.6337 57.6925 40.158C58.4881 38.6822 58.9983 37.0926 59.5084 36.5247C60.0185 35.9569 61.6659 34.6527 61.6659 34.6527C61.6659 34.6527 66.1493 34.0287 67.0011 33.2347C67.5159 32.7542 67.9886 31.7776 68.2818 31.0788L68.2522 31.046Z" fill="black"/>
<path d="M56.3291 31.1318C56.3291 31.1318 57.0108 32.1536 57.1247 33.0631C57.2214 33.8383 57.0401 34.6226 56.613 35.2767C56.2729 35.7868 55.9329 36.2408 55.6489 37.0364C55.365 37.832 55.3089 38.9661 54.9111 39.5324C54.5133 40.0987 54.2871 40.6665 54.8533 41.1782C55.4196 41.6899 56.8969 41.6322 57.6925 40.1564C58.4881 38.6806 58.9983 37.091 59.5084 36.5232C60.0185 35.9553 61.6659 34.6512 61.6659 34.6512C61.6659 34.6512 66.1493 34.0272 67.0011 33.2331C67.8528 32.4391 68.5907 30.2816 68.5907 30.2816" stroke="#263238" stroke-linecap="round" stroke-linejoin="round"/>
<path d="M54.5695 33.971C54.5695 33.971 56.0468 34.765 57.1247 33.8571" stroke="#263238" stroke-linecap="round" stroke-linejoin="round"/>
<path d="M59.5647 41.7476L58.2605 39.25" stroke="#263238" stroke-linecap="round" stroke-linejoin="round"/>
<path d="M63.7095 36.8664C63.7095 36.8664 64.7313 36.0146 64.6736 34.1411" stroke="#263238" stroke-linecap="round" stroke-linejoin="round"/>
<path d="M32.6841 83.1032H94.4601" stroke="#263238" stroke-linecap="round" stroke-linejoin="round"/>
<path d="M27.2241 83.1032H30.0321" stroke="#263238" stroke-linecap="round" stroke-linejoin="round"/>
<path d="M134.328 23.2536C134.014 20.9915 132.274 19.679 130.017 19.679C127.357 19.679 125.354 21.6179 125.354 24.9091C125.354 28.1953 127.333 30.1392 130.017 30.1392C132.438 30.1392 134.044 28.5732 134.328 26.6293L132.468 26.6193C132.235 27.8125 131.26 28.4837 130.042 28.4837C128.392 28.4837 127.208 27.2457 127.208 24.9091C127.208 22.6122 128.382 21.3345 130.047 21.3345C131.285 21.3345 132.254 22.0355 132.468 23.2536H134.328ZM135.937 30H137.737V25.5107C137.737 24.5412 138.468 23.8551 139.457 23.8551C139.76 23.8551 140.138 23.9098 140.292 23.9595V22.304C140.128 22.2741 139.845 22.2543 139.646 22.2543C138.771 22.2543 138.04 22.7514 137.762 23.6364H137.682V22.3636H135.937V30ZM144.554 30.1491C146.334 30.1491 147.557 29.2791 147.875 27.9517L146.195 27.7628C145.951 28.4091 145.355 28.7472 144.579 28.7472C143.416 28.7472 142.645 27.9815 142.63 26.674H147.95V26.1222C147.95 23.4425 146.339 22.2642 144.46 22.2642C142.272 22.2642 140.845 23.87 140.845 26.2266C140.845 28.6229 142.252 30.1491 144.554 30.1491ZM142.635 25.4609C142.69 24.4865 143.411 23.6662 144.485 23.6662C145.519 23.6662 146.215 24.4219 146.225 25.4609H142.635ZM151.67 30.1541C152.868 30.1541 153.584 29.5923 153.912 28.951H153.972V30H155.702V24.8892C155.702 22.8707 154.056 22.2642 152.599 22.2642C150.994 22.2642 149.761 22.9801 149.363 24.3722L151.043 24.6108C151.222 24.0888 151.729 23.6413 152.609 23.6413C153.445 23.6413 153.902 24.0689 153.902 24.8196V24.8494C153.902 25.3665 153.36 25.3913 152.013 25.5355C150.531 25.6946 149.114 26.1371 149.114 27.8572C149.114 29.3587 150.213 30.1541 151.67 30.1541ZM152.137 28.8317C151.386 28.8317 150.849 28.4886 150.849 27.8274C150.849 27.1364 151.451 26.848 152.256 26.7337C152.729 26.669 153.673 26.5497 153.907 26.3608V27.2607C153.907 28.1108 153.221 28.8317 152.137 28.8317ZM161.325 22.3636H159.818V20.5341H158.018V22.3636H156.935V23.7557H158.018V28.0014C158.009 29.4382 159.053 30.1442 160.405 30.1044C160.917 30.0895 161.27 29.9901 161.464 29.9254L161.161 28.5185C161.061 28.5433 160.857 28.5881 160.634 28.5881C160.181 28.5881 159.818 28.429 159.818 27.7031V23.7557H161.325V22.3636ZM166.128 30.1491C167.908 30.1491 169.131 29.2791 169.449 27.9517L167.769 27.7628C167.525 28.4091 166.929 28.7472 166.153 28.7472C164.99 28.7472 164.219 27.9815 164.204 26.674H169.524V26.1222C169.524 23.4425 167.913 22.2642 166.034 22.2642C163.846 22.2642 162.42 23.87 162.42 26.2266C162.42 28.6229 163.827 30.1491 166.128 30.1491ZM164.209 25.4609C164.264 24.4865 164.985 23.6662 166.059 23.6662C167.093 23.6662 167.789 24.4219 167.799 25.4609H164.209ZM181.415 32.8636V22.3636H179.645V23.6264H179.541C179.267 23.0746 178.705 22.2642 177.358 22.2642C175.593 22.2642 174.206 23.6463 174.206 26.1918C174.206 28.7074 175.553 30.1342 177.353 30.1342C178.666 30.1342 179.257 29.3537 179.541 28.7969H179.615V32.8636H181.415ZM179.65 26.1818C179.65 27.6634 179.004 28.6577 177.855 28.6577C176.667 28.6577 176.041 27.6136 176.041 26.1818C176.041 24.7599 176.657 23.7408 177.855 23.7408C179.014 23.7408 179.65 24.7003 179.65 26.1818ZM188.136 26.7884C188.136 27.9517 187.306 28.5284 186.511 28.5284C185.646 28.5284 185.069 27.9169 185.069 26.9474V22.3636H183.269V27.2259C183.269 29.0604 184.313 30.0994 185.815 30.0994C186.958 30.0994 187.764 29.4979 188.112 28.6428H188.191V30H189.936V22.3636H188.136V26.7884ZM191.787 30H193.586V22.3636H191.787V30ZM192.692 21.2798C193.263 21.2798 193.731 20.8423 193.731 20.3054C193.731 19.7635 193.263 19.326 192.692 19.326C192.115 19.326 191.648 19.7635 191.648 20.3054C191.648 20.8423 192.115 21.2798 192.692 21.2798ZM198.768 30.1491C200.687 30.1491 201.91 29.0107 202.039 27.3899H200.319C200.165 28.2102 199.574 28.6825 198.783 28.6825C197.659 28.6825 196.934 27.7429 196.934 26.1818C196.934 24.6406 197.674 23.7159 198.783 23.7159C199.648 23.7159 200.18 24.2727 200.319 25.0085H202.039C201.915 23.353 200.623 22.2642 198.758 22.2642C196.521 22.2642 195.109 23.88 195.109 26.2116C195.109 28.5234 196.486 30.1491 198.768 30.1491ZM203.517 30H205.317V27.4347L205.973 26.7337L208.31 30H210.463L207.33 25.6598L210.289 22.3636H208.186L205.441 25.4311H205.317V19.8182H203.517V30ZM220.996 24.3821C220.748 23.0895 219.713 22.2642 217.924 22.2642C216.084 22.2642 214.831 23.169 214.836 24.581C214.831 25.6946 215.517 26.4304 216.984 26.7337L218.287 27.0071C218.988 27.1612 219.316 27.4446 219.316 27.8771C219.316 28.3991 218.749 28.7919 217.894 28.7919C217.069 28.7919 216.532 28.4339 216.378 27.7479L214.623 27.9169C214.846 29.3189 216.025 30.1491 217.899 30.1491C219.808 30.1491 221.155 29.1598 221.16 27.7131C221.155 26.6243 220.454 25.9581 219.012 25.6449L217.71 25.3665C216.934 25.1925 216.626 24.924 216.631 24.4815C216.626 23.9645 217.198 23.6065 217.949 23.6065C218.779 23.6065 219.216 24.0589 219.355 24.5611L220.996 24.3821ZM224.842 30.1541C226.04 30.1541 226.756 29.5923 227.084 28.951H227.143V30H228.874V24.8892C228.874 22.8707 227.228 22.2642 225.771 22.2642C224.166 22.2642 222.933 22.9801 222.535 24.3722L224.215 24.6108C224.394 24.0888 224.901 23.6413 225.781 23.6413C226.616 23.6413 227.074 24.0689 227.074 24.8196V24.8494C227.074 25.3665 226.532 25.3913 225.185 25.5355C223.703 25.6946 222.286 26.1371 222.286 27.8572C222.286 29.3587 223.385 30.1541 224.842 30.1541ZM225.309 28.8317C224.558 28.8317 224.021 28.4886 224.021 27.8274C224.021 27.1364 224.623 26.848 225.428 26.7337C225.901 26.669 226.845 26.5497 227.079 26.3608V27.2607C227.079 28.1108 226.393 28.8317 225.309 28.8317ZM237.231 22.3636H235.317L233.557 28.0362H233.477L231.722 22.3636H229.803L232.523 30H234.511L237.231 22.3636ZM238.476 30H240.276V22.3636H238.476V30ZM239.381 21.2798C239.953 21.2798 240.42 20.8423 240.42 20.3054C240.42 19.7635 239.953 19.326 239.381 19.326C238.804 19.326 238.337 19.7635 238.337 20.3054C238.337 20.8423 238.804 21.2798 239.381 21.2798ZM243.926 25.5256C243.926 24.4219 244.593 23.7855 245.542 23.7855C246.472 23.7855 247.029 24.397 247.029 25.4162V30H248.828V25.1378C248.833 23.3082 247.789 22.2642 246.213 22.2642C245.07 22.2642 244.284 22.8111 243.936 23.6612H243.847V22.3636H242.127V30H243.926V25.5256ZM253.979 33.0227C256.042 33.0227 257.563 32.0781 257.563 30.1243V22.3636H255.789V23.6264H255.689C255.416 23.0746 254.844 22.2642 253.497 22.2642C251.732 22.2642 250.345 23.6463 250.345 26.157C250.345 28.6477 251.732 29.8906 253.492 29.8906C254.799 29.8906 255.411 29.1896 255.689 28.6278H255.779V30.0746C255.779 31.1982 255.033 31.6605 254.009 31.6605C252.925 31.6605 252.448 31.1484 252.229 30.701L250.608 31.0938C250.936 32.1626 252.035 33.0227 253.979 33.0227ZM253.994 28.4787C252.806 28.4787 252.179 27.554 252.179 26.147C252.179 24.7599 252.796 23.7408 253.994 23.7408C255.152 23.7408 255.789 24.7003 255.789 26.147C255.789 27.6037 255.142 28.4787 253.994 28.4787ZM266.202 33.0227C268.265 33.0227 269.786 32.0781 269.786 30.1243V22.3636H268.011V23.6264H267.912C267.638 23.0746 267.067 22.2642 265.719 22.2642C263.954 22.2642 262.567 23.6463 262.567 26.157C262.567 28.6477 263.954 29.8906 265.714 29.8906C267.022 29.8906 267.633 29.1896 267.912 28.6278H268.001V30.0746C268.001 31.1982 267.256 31.6605 266.231 31.6605C265.148 31.6605 264.67 31.1484 264.452 30.701L262.831 31.0938C263.159 32.1626 264.258 33.0227 266.202 33.0227ZM266.216 28.4787C265.028 28.4787 264.402 27.554 264.402 26.147C264.402 24.7599 265.018 23.7408 266.216 23.7408C267.375 23.7408 268.011 24.7003 268.011 26.147C268.011 27.6037 267.365 28.4787 266.216 28.4787ZM274.961 30.1491C277.199 30.1491 278.621 28.5732 278.621 26.2116C278.621 23.8452 277.199 22.2642 274.961 22.2642C272.724 22.2642 271.302 23.8452 271.302 26.2116C271.302 28.5732 272.724 30.1491 274.961 30.1491ZM274.971 28.7074C273.734 28.7074 273.127 27.6037 273.127 26.2067C273.127 24.8097 273.734 23.6911 274.971 23.6911C276.189 23.6911 276.796 24.8097 276.796 26.2067C276.796 27.6037 276.189 28.7074 274.971 28.7074ZM282.346 30.1541C283.544 30.1541 284.26 29.5923 284.588 28.951H284.647V30H286.378V24.8892C286.378 22.8707 284.732 22.2642 283.275 22.2642C281.669 22.2642 280.436 22.9801 280.039 24.3722L281.719 24.6108C281.898 24.0888 282.405 23.6413 283.285 23.6413C284.12 23.6413 284.578 24.0689 284.578 24.8196V24.8494C284.578 25.3665 284.036 25.3913 282.689 25.5355C281.207 25.6946 279.79 26.1371 279.79 27.8572C279.79 29.3587 280.889 30.1541 282.346 30.1541ZM282.813 28.8317C282.062 28.8317 281.525 28.4886 281.525 27.8274C281.525 27.1364 282.127 26.848 282.932 26.7337C283.404 26.669 284.349 26.5497 284.583 26.3608V27.2607C284.583 28.1108 283.897 28.8317 282.813 28.8317ZM289.987 19.8182H288.187V30H289.987V19.8182ZM297.873 24.3821C297.624 23.0895 296.59 22.2642 294.801 22.2642C292.961 22.2642 291.708 23.169 291.713 24.581C291.708 25.6946 292.394 26.4304 293.861 26.7337L295.164 27.0071C295.865 27.1612 296.193 27.4446 296.193 27.8771C296.193 28.3991 295.626 28.7919 294.771 28.7919C293.946 28.7919 293.409 28.4339 293.254 27.7479L291.499 27.9169C291.723 29.3189 292.901 30.1491 294.776 30.1491C296.685 30.1491 298.032 29.1598 298.037 27.7131C298.032 26.6243 297.331 25.9581 295.889 25.6449L294.587 25.3665C293.811 25.1925 293.503 24.924 293.508 24.4815C293.503 23.9645 294.075 23.6065 294.825 23.6065C295.656 23.6065 296.093 24.0589 296.232 24.5611L297.873 24.3821ZM127.109 50H128.988L130.42 44.8395H130.524L131.956 50H133.83L135.993 42.3636H134.154L132.831 47.7031H132.757L131.384 42.3636H129.57L128.198 47.733H128.128L126.786 42.3636H124.951L127.109 50ZM137.25 50H139.049V42.3636H137.25V50ZM138.154 41.2798C138.726 41.2798 139.194 40.8423 139.194 40.3054C139.194 39.7635 138.726 39.326 138.154 39.326C137.578 39.326 137.11 39.7635 137.11 40.3054C137.11 40.8423 137.578 41.2798 138.154 41.2798ZM144.713 42.3636H143.207V40.5341H141.407V42.3636H140.323V43.7557H141.407V48.0014C141.397 49.4382 142.441 50.1442 143.794 50.1044C144.306 50.0895 144.659 49.9901 144.852 49.9254L144.549 48.5185C144.45 48.5433 144.246 48.5881 144.022 48.5881C143.57 48.5881 143.207 48.429 143.207 47.7031V43.7557H144.713V42.3636ZM148.182 45.5256C148.182 44.4219 148.868 43.7855 149.833 43.7855C150.777 43.7855 151.334 44.3871 151.334 45.4162V50H153.134V45.1378C153.134 43.2933 152.09 42.2642 150.504 42.2642C149.331 42.2642 148.585 42.7962 148.232 43.6612H148.142V39.8182H146.382V50H148.182V45.5256ZM162.309 42.3636H160.723V41.7621C160.723 41.1655 160.972 40.8324 161.643 40.8324C161.926 40.8324 162.165 40.897 162.314 40.9418L162.677 39.5497C162.443 39.4702 161.931 39.3409 161.31 39.3409C159.982 39.3409 158.923 40.1016 158.923 41.6428V42.3636H157.795V43.7557H158.923V50H160.723V43.7557H162.309V42.3636ZM163.718 50H165.518V45.5107C165.518 44.5412 166.249 43.8551 167.238 43.8551C167.542 43.8551 167.919 43.9098 168.074 43.9595V42.304C167.909 42.2741 167.626 42.2543 167.427 42.2543C166.552 42.2543 165.821 42.7514 165.543 43.6364H165.463V42.3636H163.718V50ZM169.269 50H171.069V42.3636H169.269V50ZM170.174 41.2798C170.746 41.2798 171.213 40.8423 171.213 40.3054C171.213 39.7635 170.746 39.326 170.174 39.326C169.597 39.326 169.13 39.7635 169.13 40.3054C169.13 40.8423 169.597 41.2798 170.174 41.2798ZM176.3 50.1491C178.08 50.1491 179.303 49.2791 179.621 47.9517L177.941 47.7628C177.697 48.4091 177.101 48.7472 176.325 48.7472C175.162 48.7472 174.391 47.9815 174.376 46.674H179.696V46.1222C179.696 43.4425 178.085 42.2642 176.206 42.2642C174.018 42.2642 172.591 43.87 172.591 46.2266C172.591 48.6229 173.998 50.1491 176.3 50.1491ZM174.381 45.4609C174.436 44.4865 175.157 43.6662 176.231 43.6662C177.265 43.6662 177.961 44.4219 177.971 45.4609H174.381ZM183.018 45.5256C183.018 44.4219 183.684 43.7855 184.634 43.7855C185.564 43.7855 186.12 44.397 186.12 45.4162V50H187.92V45.1378C187.925 43.3082 186.881 42.2642 185.305 42.2642C184.162 42.2642 183.376 42.8111 183.028 43.6612H182.939V42.3636H181.218V50H183.018V45.5256ZM192.583 50.1342C193.896 50.1342 194.488 49.3537 194.771 48.7969H194.88V50H196.65V39.8182H194.846V43.6264H194.771C194.498 43.0746 193.936 42.2642 192.588 42.2642C190.824 42.2642 189.436 43.6463 189.436 46.1918C189.436 48.7074 190.784 50.1342 192.583 50.1342ZM193.086 48.6577C191.897 48.6577 191.271 47.6136 191.271 46.1818C191.271 44.7599 191.887 43.7408 193.086 43.7408C194.244 43.7408 194.88 44.7003 194.88 46.1818C194.88 47.6634 194.234 48.6577 193.086 48.6577ZM204.604 44.3821C204.355 43.0895 203.321 42.2642 201.531 42.2642C199.692 42.2642 198.439 43.169 198.444 44.581C198.439 45.6946 199.125 46.4304 200.591 46.7337L201.894 47.0071C202.595 47.1612 202.923 47.4446 202.923 47.8771C202.923 48.3991 202.356 48.7919 201.501 48.7919C200.676 48.7919 200.139 48.4339 199.985 47.7479L198.23 47.9169C198.454 49.3189 199.632 50.1491 201.506 50.1491C203.415 50.1491 204.763 49.1598 204.768 47.7131C204.763 46.6243 204.062 45.9581 202.62 45.6449L201.317 45.3665C200.542 45.1925 200.234 44.924 200.238 44.4815C200.234 43.9645 200.805 43.6065 201.556 43.6065C202.386 43.6065 202.824 44.0589 202.963 44.5611L204.604 44.3821ZM211.922 50.1541C213.12 50.1541 213.836 49.5923 214.164 48.951H214.224V50H215.954V44.8892C215.954 42.8707 214.308 42.2642 212.851 42.2642C211.246 42.2642 210.013 42.9801 209.615 44.3722L211.295 44.6108C211.474 44.0888 211.981 43.6413 212.861 43.6413C213.697 43.6413 214.154 44.0689 214.154 44.8196V44.8494C214.154 45.3665 213.612 45.3913 212.265 45.5355C210.783 45.6946 209.366 46.1371 209.366 47.8572C209.366 49.3587 210.465 50.1541 211.922 50.1541ZM212.389 48.8317C211.638 48.8317 211.101 48.4886 211.101 47.8274C211.101 47.1364 211.703 46.848 212.508 46.7337C212.981 46.669 213.925 46.5497 214.159 46.3608V47.2607C214.159 48.1108 213.473 48.8317 212.389 48.8317ZM219.563 45.5256C219.563 44.4219 220.229 43.7855 221.179 43.7855C222.109 43.7855 222.665 44.397 222.665 45.4162V50H224.465V45.1378C224.47 43.3082 223.426 42.2642 221.85 42.2642C220.707 42.2642 219.921 42.8111 219.573 43.6612H219.484V42.3636H217.763V50H219.563V45.5256ZM229.128 50.1342C230.441 50.1342 231.033 49.3537 231.316 48.7969H231.425V50H233.195V39.8182H231.39V43.6264H231.316C231.042 43.0746 230.481 42.2642 229.133 42.2642C227.368 42.2642 225.981 43.6463 225.981 46.1918C225.981 48.7074 227.329 50.1342 229.128 50.1342ZM229.631 48.6577C228.442 48.6577 227.816 47.6136 227.816 46.1818C227.816 44.7599 228.432 43.7408 229.631 43.7408C230.789 43.7408 231.425 44.7003 231.425 46.1818C231.425 47.6634 230.779 48.6577 229.631 48.6577ZM241.917 50.1491C243.836 50.1491 245.059 49.0107 245.188 47.3899H243.468C243.314 48.2102 242.722 48.6825 241.931 48.6825C240.808 48.6825 240.082 47.7429 240.082 46.1818C240.082 44.6406 240.823 43.7159 241.931 43.7159C242.797 43.7159 243.329 44.2727 243.468 45.0085H245.188C245.064 43.353 243.771 42.2642 241.907 42.2642C239.669 42.2642 238.257 43.88 238.257 46.2116C238.257 48.5234 239.635 50.1491 241.917 50.1491ZM249.997 50.1491C252.234 50.1491 253.656 48.5732 253.656 46.2116C253.656 43.8452 252.234 42.2642 249.997 42.2642C247.759 42.2642 246.338 43.8452 246.338 46.2116C246.338 48.5732 247.759 50.1491 249.997 50.1491ZM250.007 48.7074C248.769 48.7074 248.162 47.6037 248.162 46.2067C248.162 44.8097 248.769 43.6911 250.007 43.6911C251.225 43.6911 251.831 44.8097 251.831 46.2067C251.831 47.6037 251.225 48.7074 250.007 48.7074ZM256.983 39.8182H255.183V50H256.983V39.8182ZM260.633 39.8182H258.834V50H260.633V39.8182ZM265.865 50.1491C267.645 50.1491 268.868 49.2791 269.186 47.9517L267.505 47.7628C267.262 48.4091 266.665 48.7472 265.89 48.7472C264.726 48.7472 263.956 47.9815 263.941 46.674H269.26V46.1222C269.26 43.4425 267.65 42.2642 265.77 42.2642C263.583 42.2642 262.156 43.87 262.156 46.2266C262.156 48.6229 263.563 50.1491 265.865 50.1491ZM263.946 45.4609C264 44.4865 264.721 43.6662 265.795 43.6662C266.829 43.6662 267.525 44.4219 267.535 45.4609H263.946ZM272.98 50.1541C274.178 50.1541 274.894 49.5923 275.223 48.951H275.282V50H277.012V44.8892C277.012 42.8707 275.367 42.2642 273.91 42.2642C272.304 42.2642 271.071 42.9801 270.673 44.3722L272.354 44.6108C272.533 44.0888 273.04 43.6413 273.92 43.6413C274.755 43.6413 275.213 44.0689 275.213 44.8196V44.8494C275.213 45.3665 274.671 45.3913 273.323 45.5355C271.842 45.6946 270.425 46.1371 270.425 47.8572C270.425 49.3587 271.524 50.1541 272.98 50.1541ZM273.448 48.8317C272.697 48.8317 272.16 48.4886 272.16 47.8274C272.16 47.1364 272.762 46.848 273.567 46.7337C274.039 46.669 274.984 46.5497 275.218 46.3608V47.2607C275.218 48.1108 274.531 48.8317 273.448 48.8317ZM282.143 53.0227C284.206 53.0227 285.727 52.0781 285.727 50.1243V42.3636H283.953V43.6264H283.853C283.58 43.0746 283.008 42.2642 281.661 42.2642C279.896 42.2642 278.509 43.6463 278.509 46.157C278.509 48.6477 279.896 49.8906 281.656 49.8906C282.963 49.8906 283.575 49.1896 283.853 48.6278H283.943V50.0746C283.943 51.1982 283.197 51.6605 282.173 51.6605C281.089 51.6605 280.612 51.1484 280.393 50.701L278.772 51.0938C279.1 52.1626 280.199 53.0227 282.143 53.0227ZM282.158 48.4787C280.97 48.4787 280.343 47.554 280.343 46.147C280.343 44.7599 280.96 43.7408 282.158 43.7408C283.316 43.7408 283.953 44.7003 283.953 46.147C283.953 47.6037 283.306 48.4787 282.158 48.4787ZM292.439 46.7884C292.439 47.9517 291.609 48.5284 290.813 48.5284C289.948 48.5284 289.372 47.9169 289.372 46.9474V42.3636H287.572V47.2259C287.572 49.0604 288.616 50.0994 290.117 50.0994C291.261 50.0994 292.066 49.4979 292.414 48.6428H292.494V50H294.239V42.3636H292.439V46.7884ZM299.47 50.1491C301.25 50.1491 302.473 49.2791 302.791 47.9517L301.111 47.7628C300.867 48.4091 300.271 48.7472 299.495 48.7472C298.332 48.7472 297.561 47.9815 297.546 46.674H302.866V46.1222C302.866 43.4425 301.255 42.2642 299.376 42.2642C297.188 42.2642 295.761 43.87 295.761 46.2266C295.761 48.6229 297.168 50.1491 299.47 50.1491ZM297.551 45.4609C297.606 44.4865 298.327 43.6662 299.401 43.6662C300.435 43.6662 301.131 44.4219 301.141 45.4609H297.551ZM310.424 44.3821C310.175 43.0895 309.141 42.2642 307.351 42.2642C305.512 42.2642 304.259 43.169 304.264 44.581C304.259 45.6946 304.945 46.4304 306.412 46.7337L307.714 47.0071C308.415 47.1612 308.743 47.4446 308.743 47.8771C308.743 48.3991 308.177 48.7919 307.322 48.7919C306.496 48.7919 305.959 48.4339 305.805 47.7479L304.05 47.9169C304.274 49.3189 305.452 50.1491 307.327 50.1491C309.236 50.1491 310.583 49.1598 310.588 47.7131C310.583 46.6243 309.882 45.9581 308.44 45.6449L307.138 45.3665C306.362 45.1925 306.054 44.924 306.059 44.4815C306.054 43.9645 306.626 43.6065 307.376 43.6065C308.207 43.6065 308.644 44.0589 308.783 44.5611L310.424 44.3821Z" fill="#263238"/>
<path d="M268.438 75.4545H269.46C269.414 74.1378 268.199 73.1534 266.512 73.1534C264.841 73.1534 263.529 74.125 263.529 75.5909C263.529 76.767 264.381 77.4659 265.745 77.858L266.818 78.1648C267.739 78.4205 268.557 78.7443 268.557 79.6136C268.557 80.5682 267.637 81.1989 266.426 81.1989C265.387 81.1989 264.466 80.7386 264.381 79.75H263.29C263.392 81.1818 264.551 82.1534 266.426 82.1534C268.438 82.1534 269.58 81.0455 269.58 79.6307C269.58 77.9943 268.029 77.4659 267.125 77.2273L266.239 76.9886C265.591 76.8182 264.551 76.4773 264.551 75.5398C264.551 74.7045 265.318 74.0909 266.477 74.0909C267.534 74.0909 268.335 74.5938 268.438 75.4545ZM272.807 82.1534C273.949 82.1534 274.546 81.5398 274.75 81.1136H274.801V82H275.807V77.6875C275.807 75.608 274.222 75.3693 273.387 75.3693C272.398 75.3693 271.273 75.7102 270.762 76.9034L271.716 77.2443C271.938 76.767 272.462 76.2557 273.421 76.2557C274.345 76.2557 274.801 76.7457 274.801 77.5852V77.6193C274.801 78.1051 274.307 78.0625 273.114 78.2159C271.899 78.3736 270.574 78.642 270.574 80.142C270.574 81.4205 271.563 82.1534 272.807 82.1534ZM272.96 81.25C272.159 81.25 271.58 80.892 271.58 80.1932C271.58 79.4261 272.279 79.1875 273.063 79.0852C273.489 79.0341 274.631 78.9148 274.801 78.7102V79.6307C274.801 80.4489 274.154 81.25 272.96 81.25ZM282.461 75.4545H281.37L279.563 80.6705H279.495L277.688 75.4545H276.597L279.017 82H280.04L282.461 75.4545ZM285.998 82.1364C287.327 82.1364 288.299 81.4716 288.606 80.483L287.634 80.2102C287.379 80.892 286.786 81.233 285.998 81.233C284.818 81.233 284.004 80.4702 283.957 79.0682H288.708V78.642C288.708 76.2045 287.259 75.3693 285.896 75.3693C284.123 75.3693 282.947 76.767 282.947 78.7784C282.947 80.7898 284.106 82.1364 285.998 82.1364ZM283.957 78.1989C284.025 77.1804 284.745 76.2727 285.896 76.2727C286.987 76.2727 287.685 77.0909 287.685 78.1989H283.957ZM294.019 78.0625C294.019 76.9205 294.726 76.2727 295.689 76.2727C296.622 76.2727 297.189 76.8821 297.189 77.9091V82H298.195V77.8409C298.195 76.1705 297.304 75.3693 295.979 75.3693C294.99 75.3693 294.377 75.8125 294.07 76.4773H293.985V75.4545H293.013V82H294.019V78.0625ZM302.392 82.1364C304.164 82.1364 305.358 80.7898 305.358 78.7614C305.358 76.7159 304.164 75.3693 302.392 75.3693C300.619 75.3693 299.426 76.7159 299.426 78.7614C299.426 80.7898 300.619 82.1364 302.392 82.1364ZM302.392 81.233C301.045 81.233 300.431 80.0739 300.431 78.7614C300.431 77.4489 301.045 76.2727 302.392 76.2727C303.738 76.2727 304.352 77.4489 304.352 78.7614C304.352 80.0739 303.738 81.233 302.392 81.233ZM307.853 82H308.842L310.273 76.9716H310.376L311.808 82H312.796L314.79 75.4545H313.734L312.319 80.4489H312.251L310.87 75.4545H309.796L308.398 80.4659H308.33L306.915 75.4545H305.859L307.853 82Z" fill="#2F80ED"/>
<path d="M262.608 84.3864H315.2V85.2045H262.608V84.3864Z" fill="#2F80ED"/>
</svg>
