<svg width="25" height="24" viewBox="0 0 25 24" fill="none" xmlns="http://www.w3.org/2000/svg">
<path opacity="0.4" fill-rule="evenodd" clip-rule="evenodd" d="M16.8936 2H20.1602C21.5117 2 22.6081 3.1059 22.6081 4.47018V7.7641C22.6081 9.12735 21.5117 10.2343 20.1602 10.2343H16.8936C15.5411 10.2343 14.4447 9.12735 14.4447 7.7641V4.47018C14.4447 3.1059 15.5411 2 16.8936 2Z" stroke="#200E32" stroke-width="1.5" stroke-linecap="round" stroke-linejoin="round"/>
<path fill-rule="evenodd" clip-rule="evenodd" d="M5.05708 2H8.32264C9.67519 2 10.7716 3.1059 10.7716 4.47018V7.7641C10.7716 9.12735 9.67519 10.2343 8.32264 10.2343H5.05708C3.70453 10.2343 2.60815 9.12735 2.60815 7.7641V4.47018C2.60815 3.1059 3.70453 2 5.05708 2Z" stroke="#200E32" stroke-width="1.5" stroke-linecap="round" stroke-linejoin="round"/>
<path fill-rule="evenodd" clip-rule="evenodd" d="M5.05708 13.7657H8.32264C9.67519 13.7657 10.7716 14.8716 10.7716 16.2369V19.5298C10.7716 20.8941 9.67519 22 8.32264 22H5.05708C3.70453 22 2.60815 20.8941 2.60815 19.5298V16.2369C2.60815 14.8716 3.70453 13.7657 5.05708 13.7657Z" stroke="#200E32" stroke-width="1.5" stroke-linecap="round" stroke-linejoin="round"/>
<path fill-rule="evenodd" clip-rule="evenodd" d="M16.8936 13.7657H20.1602C21.5117 13.7657 22.6081 14.8716 22.6081 16.2369V19.5298C22.6081 20.8941 21.5117 22 20.1602 22H16.8936C15.5411 22 14.4447 20.8941 14.4447 19.5298V16.2369C14.4447 14.8716 15.5411 13.7657 16.8936 13.7657Z" stroke="#200E32" stroke-width="1.5" stroke-linecap="round" stroke-linejoin="round"/>
</svg>
