<svg width="25" height="24" viewBox="0 0 25 24" fill="none" xmlns="http://www.w3.org/2000/svg">
<path opacity="0.4" fill-rule="evenodd" clip-rule="evenodd" d="M22.1322 9.75287C21.4931 5.81947 18.1521 2.89324 14.1688 2.77804C13.9794 2.77062 13.7948 2.83881 13.6558 2.96758C13.5167 3.09635 13.4345 3.27514 13.4274 3.46454V3.46454V3.52862L13.8759 10.238C13.9053 10.6897 14.2936 11.033 14.7454 11.0069L21.4731 10.5584C21.6627 10.5443 21.8389 10.4553 21.9626 10.311C22.0863 10.1667 22.1473 9.97897 22.1322 9.78949V9.75287Z" stroke="#200E32" stroke-width="1.5" stroke-linecap="round" stroke-linejoin="round"/>
<path d="M9.50979 6.76889C9.93774 6.6699 10.3757 6.88887 10.5533 7.29063C10.5998 7.38512 10.6277 7.48766 10.6356 7.59269C10.7272 8.89246 10.9194 11.7391 11.0292 13.2769C11.048 13.5539 11.1764 13.812 11.3859 13.9941C11.5955 14.1762 11.869 14.2673 12.1459 14.2472V14.2472L17.7935 13.8993C18.0457 13.8842 18.2929 13.9739 18.4766 14.1472C18.6603 14.3205 18.7642 14.5621 18.7638 14.8147V14.8147C18.5349 18.225 16.0847 21.0761 12.7475 21.8151C9.41029 22.5541 5.98546 21.0041 4.33816 18.0092C3.84641 17.1472 3.535 16.1943 3.42283 15.2083C3.37488 14.9056 3.35648 14.5991 3.36791 14.2929C3.37762 10.6509 5.93542 7.51285 9.50063 6.76889" stroke="#200E32" stroke-width="1.5" stroke-linecap="round" stroke-linejoin="round"/>
</svg>
