<svg width="22" height="22" viewBox="0 0 22 22" fill="none" xmlns="http://www.w3.org/2000/svg">
<path d="M8.37328 19.7714V16.7047C8.37326 15.9246 9.00918 15.2908 9.79708 15.2856H12.6832C13.4748 15.2856 14.1166 15.9209 14.1166 16.7047V16.7047V19.7809C14.1164 20.4432 14.6503 20.9845 15.3191 21H17.2432C19.1612 21 20.7161 19.4607 20.7161 17.5618V17.5618V8.83784C20.7058 8.09083 20.3515 7.38935 19.754 6.93303L13.1738 1.6853C12.021 0.771566 10.3823 0.771566 9.22948 1.6853L2.67809 6.94256C2.07832 7.39702 1.72345 8.09967 1.71606 8.84736V17.5618C1.71606 19.4607 3.27094 21 5.18898 21H7.11303C7.79842 21 8.35404 20.4499 8.35404 19.7714V19.7714" stroke="#200E32" stroke-width="1.5" stroke-linecap="round" stroke-linejoin="round"/>
</svg>
